<svg version="1.1" viewBox="0.0 0.0 284.54068241469815 510.7716535433071" fill="none" stroke="none" stroke-linecap="square" stroke-miterlimit="10" xmlns:xlink="http://www.w3.org/1999/xlink" xmlns="http://www.w3.org/2000/svg"><clipPath id="p.0"><path d="m0 0l284.54068 0l0 510.77167l-284.54068 0l0 -510.77167z" clip-rule="nonzero"/></clipPath><g clip-path="url(#p.0)"><path fill="#000000" fill-opacity="0.0" d="m0 0l284.54068 0l0 510.77167l-284.54068 0z" fill-rule="evenodd"/><path fill="#ff0000" d="m49.641117 452.62967l0 0c-51.158096 -51.15808 -51.158096 -134.10175 0 -185.25983q85.37886 -85.37886 92.62993 -248.88548q7.251068 163.50662 92.62991 248.88548l0 0c51.158096 51.15808 51.158096 134.10175 0 185.25983l0 0c-51.158096 51.15811 -134.10175 51.15811 -185.25984 0z" fill-rule="evenodd"/><path fill="#ffffff" d="m236.54309 352.8924c-4.3377075 0 -4.626419 19.372711 -12.144363 29.493439c-7.517929 10.120728 -19.951447 22.845123 -32.963257 31.230957c-13.01181 8.385834 -37.011368 12.433502 -45.107605 19.083984c-8.096237 6.650482 -8.385391 16.192474 -3.469818 20.818909c4.915573 4.6264343 19.083984 10.409454 32.963257 6.939636c13.879257 -3.469818 37.878387 -14.746277 50.312332 -27.758545c12.433945 -13.012238 22.556427 -37.01355 24.291336 -50.31494c1.734909 -13.301392 -9.544174 -29.493439 -13.881882 -29.493439z" fill-rule="evenodd"/></g></svg>